<svg width="32" height="32" viewBox="0 0 32 32" fill="none" xmlns="http://www.w3.org/2000/svg">
<path d="M0 15.36C0 8.11923 0 4.49884 2.24942 2.24942C4.49884 0 8.11923 0 15.36 0H16.64C23.8808 0 27.5012 0 29.7506 2.24942C32 4.49884 32 8.11923 32 15.36V16.64C32 23.8808 32 27.5012 29.7506 29.7506C27.5012 32 23.8808 32 16.64 32H15.36C8.11923 32 4.49884 32 2.24942 29.7506C0 27.5012 0 23.8808 0 16.64V15.36Z" fill="#0077FF"/>
<path d="M17.0268 23.0534C9.73344 23.0534 5.57348 18.0534 5.40015 9.7334H9.05347C9.17347 15.8401 11.8667 18.4267 14.0001 18.96V9.7334H17.4402V15C19.5469 14.7734 21.7599 12.3734 22.5066 9.7334H25.9467C25.3734 12.9867 22.9733 15.3867 21.2667 16.3734C22.9733 17.1734 25.7068 19.2667 26.7468 23.0534H22.96C22.1467 20.5201 20.1202 18.56 17.4402 18.2934V23.0534H17.0268Z" fill="white"/>
</svg>
